  0
SECTION
  2
HEADER
  9
$ANGBASE
  50
0.0
  9
$ANGDIR
  70
1
  9
$MEASUREMENT
  70
1
  0
ENDSEC
  0
SECTION
  2
TABLES
  0
TABLE
  2
LTYPE
  70
4
  0
LTYPE
  5
40F
  2
CONTINUOUS
  70
0
  3
Solid line
  72
65
  73
0
  40
0.0
  0
LTYPE
  5
410
  2
DASHDOT
 70
0
  3
Dash Dot ____ _ ____ _
 72
65
 73
4
 40
2.0
 49
1.25
 49
-0.25
 49
0.25
 49
-0.25
  0
LTYPE
  5
411
  2
DASHED
 70
0
  3
Dashed __ __ __ __ __
 72
65
 73
2
 40
0.75
 49
0.5
 49
-0.25
  0
LTYPE
  5
43B
  2
DOTTED
 70
0
  3
Dotted .  .  .  .
 72
65
 73
2
 40
0.2
 49
0.0
 49
-0.2
  0
ENDTAB
  0
TABLE
  2
STYLE
  70
4
  0
STYLE
  2
KICAD
  70
0
  40
0
  41
1
  42
1
  50
0
  71
0
  3
isocp.shx
  0
STYLE
  2
KICADB
  70
0
  40
0
  41
1
  42
1
  50
0
  71
0
  3
isocp.shx
  0
STYLE
  2
KICADI
  70
0
  40
0
  41
1
  42
1
  50
15
  71
0
  3
isocp.shx
  0
STYLE
  2
KICADBI
  70
0
  40
0
  41
1
  42
1
  50
15
  71
0
  3
isocp.shx
  0
ENDTAB
  0
TABLE
  2
LAYER
  70
1
  0
LAYER
  2
BLACK
  70
0
  62
7
  6
CONTINUOUS
  0
ENDTAB
  0
ENDSEC
  0
SECTION
  2
ENTITIES
0
LINE
8
BLACK
6
CONTINUOUS
10
86.5
20
-48.5
11
86.5
21
-66.5
0
LINE
8
BLACK
6
CONTINUOUS
10
85
20
-68
11
70
21
-68
0
ARC
8
BLACK
10
110.5
20
-102.5
40
1.5
50
-0
51
90
0
ARC
8
BLACK
10
141
20
-48
40
1
50
-0
51
90
0
ARC
8
BLACK
10
143
20
-48
40
1
50
-180
51
-90
0
ARC
8
BLACK
10
123
20
-44.5
40
1.5
50
-0
51
90
0
LINE
8
BLACK
6
CONTINUOUS
10
124.5
20
-44.5
11
124.5
21
-45.5
0
ARC
8
BLACK
10
70
20
-103.5
40
1.5
50
-180
51
-90
0
LINE
8
BLACK
6
CONTINUOUS
10
50.5
20
-71.5
11
50.5
21
-88.5
0
LINE
8
BLACK
6
CONTINUOUS
10
52
20
-90
11
67
21
-90
0
ARC
8
BLACK
10
178
20
-50.5
40
1.5
50
-0
51
90
0
ARC
8
BLACK
10
52
20
-71.5
40
1.5
50
90
51
180
0
ARC
8
BLACK
10
126
20
-45.5
40
1.5
50
-180
51
-90
0
LINE
8
BLACK
6
CONTINUOUS
10
86
20
-105
11
87
21
-105
0
ARC
8
BLACK
10
85
20
-66.5
40
1.5
50
-90
51
-0
0
LINE
8
BLACK
6
CONTINUOUS
10
106
20
-43
11
123
21
-43
0
ARC
8
BLACK
10
113.5
20
-121
40
1.5
50
-180
51
-90
0
ARC
8
BLACK
10
68
20
-69
40
1
50
-90
51
-0
0
LINE
8
BLACK
6
CONTINUOUS
10
88.5
20
-102.5
11
88.5
21
-103.5
0
ARC
8
BLACK
10
106
20
-44.5
40
1.5
50
90
51
180
0
LINE
8
BLACK
6
CONTINUOUS
10
143
20
-49
11
178
21
-49
0
ARC
8
BLACK
10
67
20
-91.5
40
1.5
50
-0
51
90
0
LINE
8
BLACK
6
CONTINUOUS
10
131
20
-122.5
11
148.5
21
-127.25
0
ARC
8
BLACK
10
70
20
-69
40
1
50
90
51
180
0
LINE
8
BLACK
6
CONTINUOUS
10
104.5
20
-44.5
11
104.5
21
-45.5
0
LINE
8
BLACK
6
CONTINUOUS
10
179.5
20
-50.5
11
179.5
21
-112.25
0
ARC
8
BLACK
10
90
20
-102.5
40
1.5
50
90
51
180
0
LINE
8
BLACK
6
CONTINUOUS
10
113.5
20
-122.5
11
131
21
-122.5
0
ARC
8
BLACK
10
52
20
-88.5
40
1.5
50
-180
51
-90
0
ARC
8
BLACK
10
88
20
-48.5
40
1.5
50
90
51
180
0
LINE
8
BLACK
6
CONTINUOUS
10
112
20
-121
11
112
21
-102.5
0
LINE
8
BLACK
6
CONTINUOUS
10
70
20
-105
11
86
21
-105
0
LINE
8
BLACK
6
CONTINUOUS
10
52
20
-70
11
68
21
-70
0
ARC
8
BLACK
10
103
20
-45.5
40
1.5
50
-90
51
-0
0
LINE
8
BLACK
6
CONTINUOUS
10
148.5
20
-127.25
11
163.5
21
-136
0
LINE
8
BLACK
6
CONTINUOUS
10
103
20
-47
11
88
21
-47
0
ARC
8
BLACK
10
87
20
-103.5
40
1.5
50
-90
51
-0
0
ARC
8
BLACK
10
164.5
20
-134.25
40
2.01556
50
-119.745
51
-29.7449
0
LINE
8
BLACK
6
CONTINUOUS
10
126
20
-47
11
141
21
-47
0
LINE
8
BLACK
6
CONTINUOUS
10
90
20
-101
11
110.5
21
-101
0
LINE
8
BLACK
6
CONTINUOUS
10
68.5
20
-91.5
11
68.5
21
-103.5
0
LINE
8
BLACK
6
CONTINUOUS
10
166.25
20
-135.25
11
179.5
21
-112.25
0
LINE
8
BLACK
6
CONTINUOUS
10
137.568
20
-106.457
11
151.043
21
-110.068
0
LINE
8
BLACK
6
CONTINUOUS
10
151.043
20
-110.068
11
147.432
21
-123.543
0
LINE
8
BLACK
6
CONTINUOUS
10
147.432
20
-123.543
11
133.957
21
-119.932
0
LINE
8
BLACK
6
CONTINUOUS
10
133.957
20
-119.932
11
137.568
21
-106.457
0
LINE
8
BLACK
6
CONTINUOUS
10
131.75
20
-83.25
11
126.25
21
-83.25
0
LINE
8
BLACK
6
CONTINUOUS
10
126.25
20
-83.25
11
126.25
21
-81.75
0
LINE
8
BLACK
6
CONTINUOUS
10
126.25
20
-81.75
11
131.75
21
-81.75
0
LINE
8
BLACK
6
CONTINUOUS
10
131.75
20
-81.75
11
131.75
21
-83.25
0
LINE
8
BLACK
6
CONTINUOUS
10
143.525
20
-86.025
11
157.475
21
-86.025
0
LINE
8
BLACK
6
CONTINUOUS
10
157.475
20
-86.025
11
157.475
21
-99.975
0
LINE
8
BLACK
6
CONTINUOUS
10
157.475
20
-99.975
11
143.525
21
-99.975
0
LINE
8
BLACK
6
CONTINUOUS
10
143.525
20
-99.975
11
143.525
21
-86.025
0
LINE
8
BLACK
6
CONTINUOUS
10
143.525
20
-69.025
11
157.475
21
-69.025
0
LINE
8
BLACK
6
CONTINUOUS
10
157.475
20
-69.025
11
157.475
21
-82.975
0
LINE
8
BLACK
6
CONTINUOUS
10
157.475
20
-82.975
11
143.525
21
-82.975
0
LINE
8
BLACK
6
CONTINUOUS
10
143.525
20
-82.975
11
143.525
21
-69.025
0
LINE
8
BLACK
6
CONTINUOUS
10
179.4
20
-71.25
11
166.4
21
-71.25
0
LINE
8
BLACK
6
CONTINUOUS
10
166.4
20
-71.25
11
166.4
21
-79.25
0
LINE
8
BLACK
6
CONTINUOUS
10
166.4
20
-79.25
11
179.4
21
-79.25
0
LINE
8
BLACK
6
CONTINUOUS
10
179.4
20
-79.25
11
179.4
21
-71.25
0
LINE
8
BLACK
6
CONTINUOUS
10
107.525
20
-46.025
11
121.475
21
-46.025
0
LINE
8
BLACK
6
CONTINUOUS
10
121.475
20
-46.025
11
121.475
21
-59.975
0
LINE
8
BLACK
6
CONTINUOUS
10
121.475
20
-59.975
11
107.525
21
-59.975
0
LINE
8
BLACK
6
CONTINUOUS
10
107.525
20
-59.975
11
107.525
21
-46.025
0
LINE
8
BLACK
6
CONTINUOUS
10
156.75
20
-68.25
11
151.25
21
-68.25
0
LINE
8
BLACK
6
CONTINUOUS
10
151.25
20
-68.25
11
151.25
21
-66.75
0
LINE
8
BLACK
6
CONTINUOUS
10
151.25
20
-66.75
11
156.75
21
-66.75
0
LINE
8
BLACK
6
CONTINUOUS
10
156.75
20
-66.75
11
156.75
21
-68.25
0
LINE
8
BLACK
6
CONTINUOUS
10
53.525
20
-73.025
11
67.475
21
-73.025
0
LINE
8
BLACK
6
CONTINUOUS
10
67.475
20
-73.025
11
67.475
21
-86.975
0
LINE
8
BLACK
6
CONTINUOUS
10
67.475
20
-86.975
11
53.525
21
-86.975
0
LINE
8
BLACK
6
CONTINUOUS
10
53.525
20
-86.975
11
53.525
21
-73.025
0
LINE
8
BLACK
6
CONTINUOUS
10
170.585
20
-89.5
11
179.585
21
-89.5
0
LINE
8
BLACK
6
CONTINUOUS
10
179.585
20
-89.5
11
179.585
21
-79.5
0
LINE
8
BLACK
6
CONTINUOUS
10
179.585
20
-79.5
11
170.585
21
-79.5
0
LINE
8
BLACK
6
CONTINUOUS
10
170.585
20
-79.5
11
170.585
21
-89.5
0
LINE
8
BLACK
6
CONTINUOUS
10
89.525
20
-84.025
11
103.475
21
-84.025
0
LINE
8
BLACK
6
CONTINUOUS
10
103.475
20
-84.025
11
103.475
21
-97.975
0
LINE
8
BLACK
6
CONTINUOUS
10
103.475
20
-97.975
11
89.525
21
-97.975
0
LINE
8
BLACK
6
CONTINUOUS
10
89.525
20
-97.975
11
89.525
21
-84.025
0
LINE
8
BLACK
6
CONTINUOUS
10
89.525
20
-50.025
11
103.475
21
-50.025
0
LINE
8
BLACK
6
CONTINUOUS
10
103.475
20
-50.025
11
103.475
21
-63.975
0
LINE
8
BLACK
6
CONTINUOUS
10
103.475
20
-63.975
11
89.525
21
-63.975
0
LINE
8
BLACK
6
CONTINUOUS
10
89.525
20
-63.975
11
89.525
21
-50.025
0
LINE
8
BLACK
6
CONTINUOUS
10
149.75
20
-68.25
11
144.25
21
-68.25
0
LINE
8
BLACK
6
CONTINUOUS
10
144.25
20
-68.25
11
144.25
21
-66.75
0
LINE
8
BLACK
6
CONTINUOUS
10
144.25
20
-66.75
11
149.75
21
-66.75
0
LINE
8
BLACK
6
CONTINUOUS
10
149.75
20
-66.75
11
149.75
21
-68.25
0
LINE
8
BLACK
6
CONTINUOUS
10
157.25
20
-102.25
11
151.75
21
-102.25
0
LINE
8
BLACK
6
CONTINUOUS
10
151.75
20
-102.25
11
151.75
21
-100.75
0
LINE
8
BLACK
6
CONTINUOUS
10
151.75
20
-100.75
11
157.25
21
-100.75
0
LINE
8
BLACK
6
CONTINUOUS
10
157.25
20
-100.75
11
157.25
21
-102.25
0
LINE
8
BLACK
6
CONTINUOUS
10
138.75
20
-100.25
11
133.25
21
-100.25
0
LINE
8
BLACK
6
CONTINUOUS
10
133.25
20
-100.25
11
133.25
21
-98.75
0
LINE
8
BLACK
6
CONTINUOUS
10
133.25
20
-98.75
11
138.75
21
-98.75
0
LINE
8
BLACK
6
CONTINUOUS
10
138.75
20
-98.75
11
138.75
21
-100.25
0
LINE
8
BLACK
6
CONTINUOUS
10
166.25
20
-94.25
11
160.75
21
-94.25
0
LINE
8
BLACK
6
CONTINUOUS
10
160.75
20
-94.25
11
160.75
21
-92.75
0
LINE
8
BLACK
6
CONTINUOUS
10
160.75
20
-92.75
11
166.25
21
-92.75
0
LINE
8
BLACK
6
CONTINUOUS
10
166.25
20
-92.75
11
166.25
21
-94.25
0
LINE
8
BLACK
6
CONTINUOUS
10
149.75
20
-102.25
11
144.25
21
-102.25
0
LINE
8
BLACK
6
CONTINUOUS
10
144.25
20
-102.25
11
144.25
21
-100.75
0
LINE
8
BLACK
6
CONTINUOUS
10
144.25
20
-100.75
11
149.75
21
-100.75
0
LINE
8
BLACK
6
CONTINUOUS
10
149.75
20
-100.75
11
149.75
21
-102.25
0
LINE
8
BLACK
6
CONTINUOUS
10
125.525
20
-84.025
11
139.475
21
-84.025
0
LINE
8
BLACK
6
CONTINUOUS
10
139.475
20
-84.025
11
139.475
21
-97.975
0
LINE
8
BLACK
6
CONTINUOUS
10
139.475
20
-97.975
11
125.525
21
-97.975
0
LINE
8
BLACK
6
CONTINUOUS
10
125.525
20
-97.975
11
125.525
21
-84.025
0
LINE
8
BLACK
6
CONTINUOUS
10
143.525
20
-52.025
11
157.475
21
-52.025
0
LINE
8
BLACK
6
CONTINUOUS
10
157.475
20
-52.025
11
157.475
21
-65.975
0
LINE
8
BLACK
6
CONTINUOUS
10
157.475
20
-65.975
11
143.525
21
-65.975
0
LINE
8
BLACK
6
CONTINUOUS
10
143.525
20
-65.975
11
143.525
21
-52.025
0
LINE
8
BLACK
6
CONTINUOUS
10
125.75
20
-104.75
11
120.25
21
-104.75
0
LINE
8
BLACK
6
CONTINUOUS
10
120.25
20
-104.75
11
120.25
21
-103.25
0
LINE
8
BLACK
6
CONTINUOUS
10
120.25
20
-103.25
11
125.75
21
-103.25
0
LINE
8
BLACK
6
CONTINUOUS
10
125.75
20
-103.25
11
125.75
21
-104.75
0
LINE
8
BLACK
6
CONTINUOUS
10
161
20
-98.5
11
177.5
21
-98.5
0
LINE
8
BLACK
6
CONTINUOUS
10
177.5
20
-98.5
11
177.5
21
-112.5
0
LINE
8
BLACK
6
CONTINUOUS
10
177.5
20
-112.5
11
161
21
-112.5
0
LINE
8
BLACK
6
CONTINUOUS
10
161
20
-112.5
11
161
21
-98.5
0
LINE
8
BLACK
6
CONTINUOUS
10
107.525
20
-80.025
11
121.475
21
-80.025
0
LINE
8
BLACK
6
CONTINUOUS
10
121.475
20
-80.025
11
121.475
21
-93.975
0
LINE
8
BLACK
6
CONTINUOUS
10
121.475
20
-93.975
11
107.525
21
-93.975
0
LINE
8
BLACK
6
CONTINUOUS
10
107.525
20
-93.975
11
107.525
21
-80.025
0
LINE
8
BLACK
6
CONTINUOUS
10
113.75
20
-96.25
11
108.25
21
-96.25
0
LINE
8
BLACK
6
CONTINUOUS
10
108.25
20
-96.25
11
108.25
21
-94.75
0
LINE
8
BLACK
6
CONTINUOUS
10
108.25
20
-94.75
11
113.75
21
-94.75
0
LINE
8
BLACK
6
CONTINUOUS
10
113.75
20
-94.75
11
113.75
21
-96.25
0
LINE
8
BLACK
6
CONTINUOUS
10
113.75
20
-62.25
11
108.25
21
-62.25
0
LINE
8
BLACK
6
CONTINUOUS
10
108.25
20
-62.25
11
108.25
21
-60.75
0
LINE
8
BLACK
6
CONTINUOUS
10
108.25
20
-60.75
11
113.75
21
-60.75
0
LINE
8
BLACK
6
CONTINUOUS
10
113.75
20
-60.75
11
113.75
21
-62.25
0
LINE
8
BLACK
6
CONTINUOUS
10
166.25
20
-97.25
11
160.75
21
-97.25
0
LINE
8
BLACK
6
CONTINUOUS
10
160.75
20
-97.25
11
160.75
21
-95.75
0
LINE
8
BLACK
6
CONTINUOUS
10
160.75
20
-95.75
11
166.25
21
-95.75
0
LINE
8
BLACK
6
CONTINUOUS
10
166.25
20
-95.75
11
166.25
21
-97.25
0
LINE
8
BLACK
6
CONTINUOUS
10
121.25
20
-96.25
11
115.75
21
-96.25
0
LINE
8
BLACK
6
CONTINUOUS
10
115.75
20
-96.25
11
115.75
21
-94.75
0
LINE
8
BLACK
6
CONTINUOUS
10
115.75
20
-94.75
11
121.25
21
-94.75
0
LINE
8
BLACK
6
CONTINUOUS
10
121.25
20
-94.75
11
121.25
21
-96.25
0
LINE
8
BLACK
6
CONTINUOUS
10
120.75
20
-62.25
11
115.25
21
-62.25
0
LINE
8
BLACK
6
CONTINUOUS
10
115.25
20
-62.25
11
115.25
21
-60.75
0
LINE
8
BLACK
6
CONTINUOUS
10
115.25
20
-60.75
11
120.75
21
-60.75
0
LINE
8
BLACK
6
CONTINUOUS
10
120.75
20
-60.75
11
120.75
21
-62.25
0
LINE
8
BLACK
6
CONTINUOUS
10
131.75
20
-100.25
11
126.25
21
-100.25
0
LINE
8
BLACK
6
CONTINUOUS
10
126.25
20
-100.25
11
126.25
21
-98.75
0
LINE
8
BLACK
6
CONTINUOUS
10
126.25
20
-98.75
11
131.75
21
-98.75
0
LINE
8
BLACK
6
CONTINUOUS
10
131.75
20
-98.75
11
131.75
21
-100.25
0
LINE
8
BLACK
6
CONTINUOUS
10
107.525
20
-63.025
11
121.475
21
-63.025
0
LINE
8
BLACK
6
CONTINUOUS
10
121.475
20
-63.025
11
121.475
21
-76.975
0
LINE
8
BLACK
6
CONTINUOUS
10
121.475
20
-76.975
11
107.525
21
-76.975
0
LINE
8
BLACK
6
CONTINUOUS
10
107.525
20
-76.975
11
107.525
21
-63.025
0
LINE
8
BLACK
6
CONTINUOUS
10
158.947
20
-113.472
11
171.028
21
-120.447
0
LINE
8
BLACK
6
CONTINUOUS
10
171.028
20
-120.447
11
164.053
21
-132.528
0
LINE
8
BLACK
6
CONTINUOUS
10
164.053
20
-132.528
11
151.972
21
-125.553
0
LINE
8
BLACK
6
CONTINUOUS
10
151.972
20
-125.553
11
158.947
21
-113.472
0
LINE
8
BLACK
6
CONTINUOUS
10
84.75
20
-87.25
11
79.25
21
-87.25
0
LINE
8
BLACK
6
CONTINUOUS
10
79.25
20
-87.25
11
79.25
21
-85.75
0
LINE
8
BLACK
6
CONTINUOUS
10
79.25
20
-85.75
11
84.75
21
-85.75
0
LINE
8
BLACK
6
CONTINUOUS
10
84.75
20
-85.75
11
84.75
21
-87.25
0
LINE
8
BLACK
6
CONTINUOUS
10
125.525
20
-50.025
11
139.475
21
-50.025
0
LINE
8
BLACK
6
CONTINUOUS
10
139.475
20
-50.025
11
139.475
21
-63.975
0
LINE
8
BLACK
6
CONTINUOUS
10
139.475
20
-63.975
11
125.525
21
-63.975
0
LINE
8
BLACK
6
CONTINUOUS
10
125.525
20
-63.975
11
125.525
21
-50.025
0
LINE
8
BLACK
6
CONTINUOUS
10
115.025
20
-105.525
11
128.975
21
-105.525
0
LINE
8
BLACK
6
CONTINUOUS
10
128.975
20
-105.525
11
128.975
21
-119.475
0
LINE
8
BLACK
6
CONTINUOUS
10
128.975
20
-119.475
11
115.025
21
-119.475
0
LINE
8
BLACK
6
CONTINUOUS
10
115.025
20
-119.475
11
115.025
21
-105.525
0
LINE
8
BLACK
6
CONTINUOUS
10
77.75
20
-87.25
11
72.25
21
-87.25
0
LINE
8
BLACK
6
CONTINUOUS
10
72.25
20
-87.25
11
72.25
21
-85.75
0
LINE
8
BLACK
6
CONTINUOUS
10
72.25
20
-85.75
11
77.75
21
-85.75
0
LINE
8
BLACK
6
CONTINUOUS
10
77.75
20
-85.75
11
77.75
21
-87.25
0
LINE
8
BLACK
6
CONTINUOUS
10
164
20
-81.5
11
161
21
-81.5
0
LINE
8
BLACK
6
CONTINUOUS
10
161
20
-81.5
11
161
21
-79.5
0
LINE
8
BLACK
6
CONTINUOUS
10
161
20
-79.5
11
164
21
-79.5
0
LINE
8
BLACK
6
CONTINUOUS
10
164
20
-79.5
11
164
21
-81.5
0
LINE
8
BLACK
6
CONTINUOUS
10
125.525
20
-67.025
11
139.475
21
-67.025
0
LINE
8
BLACK
6
CONTINUOUS
10
139.475
20
-67.025
11
139.475
21
-80.975
0
LINE
8
BLACK
6
CONTINUOUS
10
139.475
20
-80.975
11
125.525
21
-80.975
0
LINE
8
BLACK
6
CONTINUOUS
10
125.525
20
-80.975
11
125.525
21
-67.025
0
LINE
8
BLACK
6
CONTINUOUS
10
71.525
20
-88.025
11
85.475
21
-88.025
0
LINE
8
BLACK
6
CONTINUOUS
10
85.475
20
-88.025
11
85.475
21
-101.975
0
LINE
8
BLACK
6
CONTINUOUS
10
85.475
20
-101.975
11
71.525
21
-101.975
0
LINE
8
BLACK
6
CONTINUOUS
10
71.525
20
-101.975
11
71.525
21
-88.025
0
LINE
8
BLACK
6
CONTINUOUS
10
71.525
20
-71.025
11
85.475
21
-71.025
0
LINE
8
BLACK
6
CONTINUOUS
10
85.475
20
-71.025
11
85.475
21
-84.975
0
LINE
8
BLACK
6
CONTINUOUS
10
85.475
20
-84.975
11
71.525
21
-84.975
0
LINE
8
BLACK
6
CONTINUOUS
10
71.525
20
-84.975
11
71.525
21
-71.025
0
LINE
8
BLACK
6
CONTINUOUS
10
102.75
20
-66.25
11
97.25
21
-66.25
0
LINE
8
BLACK
6
CONTINUOUS
10
97.25
20
-66.25
11
97.25
21
-64.75
0
LINE
8
BLACK
6
CONTINUOUS
10
97.25
20
-64.75
11
102.75
21
-64.75
0
LINE
8
BLACK
6
CONTINUOUS
10
102.75
20
-64.75
11
102.75
21
-66.25
0
LINE
8
BLACK
6
CONTINUOUS
10
95.75
20
-66.25
11
90.25
21
-66.25
0
LINE
8
BLACK
6
CONTINUOUS
10
90.25
20
-66.25
11
90.25
21
-64.75
0
LINE
8
BLACK
6
CONTINUOUS
10
90.25
20
-64.75
11
95.75
21
-64.75
0
LINE
8
BLACK
6
CONTINUOUS
10
95.75
20
-64.75
11
95.75
21
-66.25
0
LINE
8
BLACK
6
CONTINUOUS
10
138.75
20
-83.25
11
133.25
21
-83.25
0
LINE
8
BLACK
6
CONTINUOUS
10
133.25
20
-83.25
11
133.25
21
-81.75
0
LINE
8
BLACK
6
CONTINUOUS
10
133.25
20
-81.75
11
138.75
21
-81.75
0
LINE
8
BLACK
6
CONTINUOUS
10
138.75
20
-81.75
11
138.75
21
-83.25
0
LINE
8
BLACK
6
CONTINUOUS
10
89.525
20
-67.025
11
103.475
21
-67.025
0
LINE
8
BLACK
6
CONTINUOUS
10
103.475
20
-67.025
11
103.475
21
-80.975
0
LINE
8
BLACK
6
CONTINUOUS
10
103.475
20
-80.975
11
89.525
21
-80.975
0
LINE
8
BLACK
6
CONTINUOUS
10
89.525
20
-80.975
11
89.525
21
-67.025
0
LINE
8
BLACK
6
CONTINUOUS
10
174.75
20
-98.5
11
174.75
21
-89.5
0
LINE
8
BLACK
6
CONTINUOUS
10
179.25
20
-92
11
180.75
21
-92
0
LINE
8
BLACK
6
CONTINUOUS
10
179.25
20
-98.5
11
174.75
21
-98.5
0
LINE
8
BLACK
6
CONTINUOUS
10
174.75
20
-89.5
11
179.25
21
-89.5
0
LINE
8
BLACK
6
CONTINUOUS
10
179.25
20
-96
11
179.25
21
-98.5
0
LINE
8
BLACK
6
CONTINUOUS
10
179.25
20
-89.5
11
179.25
21
-92
0
LINE
8
BLACK
6
CONTINUOUS
10
180.75
20
-92
11
180.75
21
-96
0
LINE
8
BLACK
6
CONTINUOUS
10
180.75
20
-96
11
179.25
21
-96
0
LINE
8
BLACK
6
CONTINUOUS
10
163.5
20
-75
11
161.5
21
-75
0
LINE
8
BLACK
6
CONTINUOUS
10
161.5
20
-75
11
161.5
21
-72
0
LINE
8
BLACK
6
CONTINUOUS
10
161.5
20
-72
11
163.5
21
-72
0
LINE
8
BLACK
6
CONTINUOUS
10
163.5
20
-72
11
163.5
21
-75
0
LINE
8
BLACK
6
CONTINUOUS
10
174.5
20
-49.5
11
178.5
21
-49.5
0
LINE
8
BLACK
6
CONTINUOUS
10
160.5
20
-49.5
11
164.5
21
-49.5
0
LINE
8
BLACK
6
CONTINUOUS
10
164.5
20
-49
11
174.5
21
-49
0
LINE
8
BLACK
6
CONTINUOUS
10
178.5
20
-49.5
11
178.5
21
-70.5
0
LINE
8
BLACK
6
CONTINUOUS
10
164.5
20
-49.5
11
164.5
21
-49
0
LINE
8
BLACK
6
CONTINUOUS
10
160.5
20
-70.5
11
160.5
21
-49.5
0
LINE
8
BLACK
6
CONTINUOUS
10
178.5
20
-70.5
11
160.5
21
-70.5
0
LINE
8
BLACK
6
CONTINUOUS
10
174.5
20
-49
11
174.5
21
-49.5
  0
ENDSEC
  0
EOF
