  0
SECTION
  2
HEADER
  9
$ANGBASE
  50
0.0
  9
$ANGDIR
  70
1
  9
$MEASUREMENT
  70
1
  0
ENDSEC
  0
SECTION
  2
TABLES
  0
TABLE
  2
LTYPE
  70
4
  0
LTYPE
  5
40F
  2
CONTINUOUS
  70
0
  3
Solid line
  72
65
  73
0
  40
0.0
  0
LTYPE
  5
410
  2
DASHDOT
 70
0
  3
Dash Dot ____ _ ____ _
 72
65
 73
4
 40
2.0
 49
1.25
 49
-0.25
 49
0.25
 49
-0.25
  0
LTYPE
  5
411
  2
DASHED
 70
0
  3
Dashed __ __ __ __ __
 72
65
 73
2
 40
0.75
 49
0.5
 49
-0.25
  0
LTYPE
  5
43B
  2
DOTTED
 70
0
  3
Dotted .  .  .  .
 72
65
 73
2
 40
0.2
 49
0.0
 49
-0.2
  0
ENDTAB
  0
TABLE
  2
STYLE
  70
4
  0
STYLE
  2
KICAD
  70
0
  40
0
  41
1
  42
1
  50
0
  71
0
  3
isocp.shx
  0
STYLE
  2
KICADB
  70
0
  40
0
  41
1
  42
1
  50
0
  71
0
  3
isocp.shx
  0
STYLE
  2
KICADI
  70
0
  40
0
  41
1
  42
1
  50
15
  71
0
  3
isocp.shx
  0
STYLE
  2
KICADBI
  70
0
  40
0
  41
1
  42
1
  50
15
  71
0
  3
isocp.shx
  0
ENDTAB
  0
TABLE
  2
LAYER
  70
1
  0
LAYER
  2
BLACK
  70
0
  62
7
  6
CONTINUOUS
  0
ENDTAB
  0
ENDSEC
  0
SECTION
  2
ENTITIES
0
LINE
8
BLACK
6
CONTINUOUS
10
159.75
20
-58
11
194.75
21
-58
0
ARC
8
BLACK
10
104.75
20
-57.5
40
1.5
50
90
51
180
0
LINE
8
BLACK
6
CONTINUOUS
10
147.75
20
-131.5
11
165.25
21
-136.25
0
ARC
8
BLACK
10
181.25
20
-143.25
40
2.01556
50
-119.745
51
-29.7449
0
LINE
8
BLACK
6
CONTINUOUS
10
183
20
-144.25
11
196.25
21
-121.25
0
ARC
8
BLACK
10
68.75
20
-97.5
40
1.5
50
-180
51
-90
0
ARC
8
BLACK
10
86.75
20
-78
40
0.999999
50
-270
51
-180
0
ARC
8
BLACK
10
83.75
20
-100.5
40
1.5
50
3.81972e-05
51
90
0
LINE
8
BLACK
6
CONTINUOUS
10
165.25
20
-136.25
11
180.25
21
-145
0
LINE
8
BLACK
6
CONTINUOUS
10
86.75
20
-114
11
102.75
21
-114
0
LINE
8
BLACK
6
CONTINUOUS
10
128.75
20
-130
11
128.75
21
-111.5
0
ARC
8
BLACK
10
122.75
20
-53.5
40
1.5
50
90
51
180
0
LINE
8
BLACK
6
CONTINUOUS
10
68.75
20
-79
11
84.75
21
-79
0
ARC
8
BLACK
10
119.75
20
-54.5
40
1.5
50
-90
51
-0
0
LINE
8
BLACK
6
CONTINUOUS
10
85.25
20
-100.5
11
85.25
21
-112.5
0
LINE
8
BLACK
6
CONTINUOUS
10
121.25
20
-53.5
11
121.25
21
-54.5
0
ARC
8
BLACK
10
106.75
20
-111.5
40
1.5
50
90
51
180
0
ARC
8
BLACK
10
103.75
20
-112.5
40
1.5
50
-90
51
-3.81972e-05
0
LINE
8
BLACK
6
CONTINUOUS
10
119.75
20
-56
11
104.75
21
-56
0
LINE
8
BLACK
6
CONTINUOUS
10
196.25
20
-59.5
11
196.25
21
-121.25
0
LINE
8
BLACK
6
CONTINUOUS
10
142.75
20
-56
11
157.75
21
-56
0
LINE
8
BLACK
6
CONTINUOUS
10
106.75
20
-110
11
127.25
21
-110
0
LINE
8
BLACK
6
CONTINUOUS
10
130.25
20
-131.5
11
147.75
21
-131.5
0
LINE
8
BLACK
6
CONTINUOUS
10
105.25
20
-111.5
11
105.25
21
-112.5
0
ARC
8
BLACK
10
84.75
20
-78
40
0.999999
50
-90.0001
51
5.72958e-05
0
ARC
8
BLACK
10
130.25
20
-130
40
1.5
50
-180
51
-90
0
LINE
8
BLACK
6
CONTINUOUS
10
122.75
20
-52
11
139.75
21
-52
0
LINE
8
BLACK
6
CONTINUOUS
10
101.75
20
-77
11
86.75
21
-77
0
ARC
8
BLACK
10
101.75
20
-75.5
40
1.5
50
-90
51
-3.81972e-05
0
LINE
8
BLACK
6
CONTINUOUS
10
68.75
20
-99
11
83.75
21
-99
0
ARC
8
BLACK
10
86.75
20
-112.5
40
1.5
50
-180
51
-90
0
ARC
8
BLACK
10
139.75
20
-53.5
40
1.5
50
-0
51
90
0
ARC
8
BLACK
10
157.75
20
-57
40
1
50
-0
51
90
0
ARC
8
BLACK
10
68.75
20
-80.5
40
1.5
50
90
51
180
0
LINE
8
BLACK
6
CONTINUOUS
10
102.75
20
-114
11
103.75
21
-114
0
ARC
8
BLACK
10
142.75
20
-54.5
40
1.5
50
-180
51
-90
0
ARC
8
BLACK
10
194.75
20
-59.5
40
1.5
50
-0
51
90
0
ARC
8
BLACK
10
159.75
20
-57
40
1
50
-180
51
-90
0
LINE
8
BLACK
6
CONTINUOUS
10
141.25
20
-53.5
11
141.25
21
-54.5
0
LINE
8
BLACK
6
CONTINUOUS
10
103.25
20
-57.5
11
103.25
21
-75.5
0
LINE
8
BLACK
6
CONTINUOUS
10
67.25
20
-80.5
11
67.25
21
-97.5
0
ARC
8
BLACK
10
127.25
20
-111.5
40
1.5
50
-0
51
90
0
LINE
8
BLACK
6
CONTINUOUS
10
195.25
20
-58.5
11
195.25
21
-79.5
0
LINE
8
BLACK
6
CONTINUOUS
10
177.25
20
-79.5
11
177.25
21
-58.5
0
LINE
8
BLACK
6
CONTINUOUS
10
177.25
20
-58.5
11
181.25
21
-58.5
0
LINE
8
BLACK
6
CONTINUOUS
10
181.25
20
-58
11
191.25
21
-58
0
LINE
8
BLACK
6
CONTINUOUS
10
191.25
20
-58.5
11
195.25
21
-58.5
0
LINE
8
BLACK
6
CONTINUOUS
10
181.25
20
-58.5
11
181.25
21
-58
0
LINE
8
BLACK
6
CONTINUOUS
10
191.25
20
-58
11
191.25
21
-58.5
0
LINE
8
BLACK
6
CONTINUOUS
10
195.25
20
-79.5
11
177.25
21
-79.5
0
LINE
8
BLACK
6
CONTINUOUS
10
177.25
20
-58.5
11
177.25
21
-79.5
0
LINE
8
BLACK
6
CONTINUOUS
10
195.25
20
-79.5
11
195.25
21
-58.5
0
LINE
8
BLACK
6
CONTINUOUS
10
195.25
20
-58.5
11
191.25
21
-58.5
0
LINE
8
BLACK
6
CONTINUOUS
10
191.25
20
-58
11
181.25
21
-58
0
LINE
8
BLACK
6
CONTINUOUS
10
181.25
20
-58.5
11
177.25
21
-58.5
0
LINE
8
BLACK
6
CONTINUOUS
10
191.25
20
-58.5
11
191.25
21
-58
0
LINE
8
BLACK
6
CONTINUOUS
10
181.25
20
-58
11
181.25
21
-58.5
0
LINE
8
BLACK
6
CONTINUOUS
10
177.25
20
-79.5
11
195.25
21
-79.5
0
LINE
8
BLACK
6
CONTINUOUS
10
177
20
-79.75
11
179
21
-79.75
0
LINE
8
BLACK
6
CONTINUOUS
10
179
20
-79.75
11
179
21
-82.75
0
LINE
8
BLACK
6
CONTINUOUS
10
179
20
-82.75
11
177
21
-82.75
0
LINE
8
BLACK
6
CONTINUOUS
10
177
20
-82.75
11
177
21
-79.75
0
LINE
8
BLACK
6
CONTINUOUS
10
181.5
20
-82.75
11
179.5
21
-82.75
0
LINE
8
BLACK
6
CONTINUOUS
10
179.5
20
-82.75
11
179.5
21
-79.75
0
LINE
8
BLACK
6
CONTINUOUS
10
179.5
20
-79.75
11
181.5
21
-79.75
0
LINE
8
BLACK
6
CONTINUOUS
10
181.5
20
-79.75
11
181.5
21
-82.75
0
LINE
8
BLACK
6
CONTINUOUS
10
196.15
20
-80.25
11
183.15
21
-80.25
0
LINE
8
BLACK
6
CONTINUOUS
10
183.15
20
-80.25
11
183.15
21
-88.25
0
LINE
8
BLACK
6
CONTINUOUS
10
183.15
20
-88.25
11
196.15
21
-88.25
0
LINE
8
BLACK
6
CONTINUOUS
10
196.15
20
-88.25
11
196.15
21
-80.25
0
LINE
8
BLACK
6
CONTINUOUS
10
187.335
20
-88.5
11
196.335
21
-88.5
0
LINE
8
BLACK
6
CONTINUOUS
10
196.335
20
-88.5
11
196.335
21
-98.5
0
LINE
8
BLACK
6
CONTINUOUS
10
196.335
20
-98.5
11
187.335
21
-98.5
0
LINE
8
BLACK
6
CONTINUOUS
10
187.335
20
-98.5
11
187.335
21
-88.5
0
LINE
8
BLACK
6
CONTINUOUS
10
187.335
20
-98.5
11
196.335
21
-98.5
0
LINE
8
BLACK
6
CONTINUOUS
10
196.335
20
-98.5
11
196.335
21
-88.5
0
LINE
8
BLACK
6
CONTINUOUS
10
196.335
20
-88.5
11
187.335
21
-88.5
0
LINE
8
BLACK
6
CONTINUOUS
10
187.335
20
-88.5
11
187.335
21
-98.5
0
LINE
8
BLACK
6
CONTINUOUS
10
196
20
-107.5
11
196
21
-105
0
LINE
8
BLACK
6
CONTINUOUS
10
197.5
20
-105
11
197.5
21
-101
0
LINE
8
BLACK
6
CONTINUOUS
10
191.5
20
-107.5
11
196
21
-107.5
0
LINE
8
BLACK
6
CONTINUOUS
10
196
20
-105
11
197.5
21
-105
0
LINE
8
BLACK
6
CONTINUOUS
10
191.5
20
-98.5
11
191.5
21
-107.5
0
LINE
8
BLACK
6
CONTINUOUS
10
196
20
-101
11
196
21
-98.5
0
LINE
8
BLACK
6
CONTINUOUS
10
197.5
20
-101
11
196
21
-101
0
LINE
8
BLACK
6
CONTINUOUS
10
196
20
-98.5
11
191.5
21
-98.5
0
LINE
8
BLACK
6
CONTINUOUS
10
177.75
20
-107.5
11
194.25
21
-107.5
0
LINE
8
BLACK
6
CONTINUOUS
10
194.25
20
-107.5
11
194.25
21
-121.5
0
LINE
8
BLACK
6
CONTINUOUS
10
194.25
20
-121.5
11
177.75
21
-121.5
0
LINE
8
BLACK
6
CONTINUOUS
10
177.75
20
-121.5
11
177.75
21
-107.5
0
LINE
8
BLACK
6
CONTINUOUS
10
148.75
20
-92.5
11
142.75
21
-92.5
0
LINE
8
BLACK
6
CONTINUOUS
10
142.75
20
-92.5
11
142.75
21
-90.5
0
LINE
8
BLACK
6
CONTINUOUS
10
142.75
20
-90.5
11
148.75
21
-90.5
0
LINE
8
BLACK
6
CONTINUOUS
10
148.75
20
-90.5
11
148.75
21
-92.5
0
LINE
8
BLACK
6
CONTINUOUS
10
119.75
20
-75.5
11
113.75
21
-75.5
0
LINE
8
BLACK
6
CONTINUOUS
10
113.75
20
-75.5
11
113.75
21
-73.5
0
LINE
8
BLACK
6
CONTINUOUS
10
113.75
20
-73.5
11
119.75
21
-73.5
0
LINE
8
BLACK
6
CONTINUOUS
10
119.75
20
-73.5
11
119.75
21
-75.5
0
LINE
8
BLACK
6
CONTINUOUS
10
94.75
20
-96.5
11
88.75
21
-96.5
0
LINE
8
BLACK
6
CONTINUOUS
10
88.75
20
-96.5
11
88.75
21
-94.5
0
LINE
8
BLACK
6
CONTINUOUS
10
88.75
20
-94.5
11
94.75
21
-94.5
0
LINE
8
BLACK
6
CONTINUOUS
10
94.75
20
-94.5
11
94.75
21
-96.5
0
LINE
8
BLACK
6
CONTINUOUS
10
112.75
20
-75.5
11
106.75
21
-75.5
0
LINE
8
BLACK
6
CONTINUOUS
10
106.75
20
-75.5
11
106.75
21
-73.5
0
LINE
8
BLACK
6
CONTINUOUS
10
106.75
20
-73.5
11
112.75
21
-73.5
0
LINE
8
BLACK
6
CONTINUOUS
10
112.75
20
-73.5
11
112.75
21
-75.5
0
LINE
8
BLACK
6
CONTINUOUS
10
155.75
20
-92.5
11
149.75
21
-92.5
0
LINE
8
BLACK
6
CONTINUOUS
10
149.75
20
-92.5
11
149.75
21
-90.5
0
LINE
8
BLACK
6
CONTINUOUS
10
149.75
20
-90.5
11
155.75
21
-90.5
0
LINE
8
BLACK
6
CONTINUOUS
10
155.75
20
-90.5
11
155.75
21
-92.5
0
LINE
8
BLACK
6
CONTINUOUS
10
130.75
20
-105.5
11
124.75
21
-105.5
0
LINE
8
BLACK
6
CONTINUOUS
10
124.75
20
-105.5
11
124.75
21
-103.5
0
LINE
8
BLACK
6
CONTINUOUS
10
124.75
20
-103.5
11
130.75
21
-103.5
0
LINE
8
BLACK
6
CONTINUOUS
10
130.75
20
-103.5
11
130.75
21
-105.5
0
LINE
8
BLACK
6
CONTINUOUS
10
142.75
20
-114
11
136.75
21
-114
0
LINE
8
BLACK
6
CONTINUOUS
10
136.75
20
-114
11
136.75
21
-112
0
LINE
8
BLACK
6
CONTINUOUS
10
136.75
20
-112
11
142.75
21
-112
0
LINE
8
BLACK
6
CONTINUOUS
10
142.75
20
-112
11
142.75
21
-114
0
LINE
8
BLACK
6
CONTINUOUS
10
166.75
20
-111.5
11
160.75
21
-111.5
0
LINE
8
BLACK
6
CONTINUOUS
10
160.75
20
-111.5
11
160.75
21
-109.5
0
LINE
8
BLACK
6
CONTINUOUS
10
160.75
20
-109.5
11
166.75
21
-109.5
0
LINE
8
BLACK
6
CONTINUOUS
10
166.75
20
-109.5
11
166.75
21
-111.5
0
LINE
8
BLACK
6
CONTINUOUS
10
184
20
-107.5
11
178
21
-107.5
0
LINE
8
BLACK
6
CONTINUOUS
10
178
20
-107.5
11
178
21
-105.5
0
LINE
8
BLACK
6
CONTINUOUS
10
178
20
-105.5
11
184
21
-105.5
0
LINE
8
BLACK
6
CONTINUOUS
10
184
20
-105.5
11
184
21
-107.5
0
LINE
8
BLACK
6
CONTINUOUS
10
101.75
20
-96.5
11
95.75
21
-96.5
0
LINE
8
BLACK
6
CONTINUOUS
10
95.75
20
-96.5
11
95.75
21
-94.5
0
LINE
8
BLACK
6
CONTINUOUS
10
95.75
20
-94.5
11
101.75
21
-94.5
0
LINE
8
BLACK
6
CONTINUOUS
10
101.75
20
-94.5
11
101.75
21
-96.5
0
LINE
8
BLACK
6
CONTINUOUS
10
137.75
20
-71.5
11
131.75
21
-71.5
0
LINE
8
BLACK
6
CONTINUOUS
10
131.75
20
-71.5
11
131.75
21
-69.5
0
LINE
8
BLACK
6
CONTINUOUS
10
131.75
20
-69.5
11
137.75
21
-69.5
0
LINE
8
BLACK
6
CONTINUOUS
10
137.75
20
-69.5
11
137.75
21
-71.5
0
LINE
8
BLACK
6
CONTINUOUS
10
137.75
20
-105.5
11
131.75
21
-105.5
0
LINE
8
BLACK
6
CONTINUOUS
10
131.75
20
-105.5
11
131.75
21
-103.5
0
LINE
8
BLACK
6
CONTINUOUS
10
131.75
20
-103.5
11
137.75
21
-103.5
0
LINE
8
BLACK
6
CONTINUOUS
10
137.75
20
-103.5
11
137.75
21
-105.5
0
LINE
8
BLACK
6
CONTINUOUS
10
191
20
-107.5
11
185
21
-107.5
0
LINE
8
BLACK
6
CONTINUOUS
10
185
20
-107.5
11
185
21
-105.5
0
LINE
8
BLACK
6
CONTINUOUS
10
185
20
-105.5
11
191
21
-105.5
0
LINE
8
BLACK
6
CONTINUOUS
10
191
20
-105.5
11
191
21
-107.5
0
LINE
8
BLACK
6
CONTINUOUS
10
130.75
20
-71.5
11
124.75
21
-71.5
0
LINE
8
BLACK
6
CONTINUOUS
10
124.75
20
-71.5
11
124.75
21
-69.5
0
LINE
8
BLACK
6
CONTINUOUS
10
124.75
20
-69.5
11
130.75
21
-69.5
0
LINE
8
BLACK
6
CONTINUOUS
10
130.75
20
-69.5
11
130.75
21
-71.5
0
LINE
8
BLACK
6
CONTINUOUS
10
155.75
20
-109.5
11
149.75
21
-109.5
0
LINE
8
BLACK
6
CONTINUOUS
10
149.75
20
-109.5
11
149.75
21
-107.5
0
LINE
8
BLACK
6
CONTINUOUS
10
149.75
20
-107.5
11
155.75
21
-107.5
0
LINE
8
BLACK
6
CONTINUOUS
10
155.75
20
-107.5
11
155.75
21
-109.5
0
LINE
8
BLACK
6
CONTINUOUS
10
148.75
20
-109.5
11
142.75
21
-109.5
0
LINE
8
BLACK
6
CONTINUOUS
10
142.75
20
-109.5
11
142.75
21
-107.5
0
LINE
8
BLACK
6
CONTINUOUS
10
142.75
20
-107.5
11
148.75
21
-107.5
0
LINE
8
BLACK
6
CONTINUOUS
10
148.75
20
-107.5
11
148.75
21
-109.5
0
LINE
8
BLACK
6
CONTINUOUS
10
166.75
20
-77.5
11
160.75
21
-77.5
0
LINE
8
BLACK
6
CONTINUOUS
10
160.75
20
-77.5
11
160.75
21
-75.5
0
LINE
8
BLACK
6
CONTINUOUS
10
160.75
20
-75.5
11
166.75
21
-75.5
0
LINE
8
BLACK
6
CONTINUOUS
10
166.75
20
-75.5
11
166.75
21
-77.5
0
LINE
8
BLACK
6
CONTINUOUS
10
173.75
20
-77.5
11
167.75
21
-77.5
0
LINE
8
BLACK
6
CONTINUOUS
10
167.75
20
-77.5
11
167.75
21
-75.5
0
LINE
8
BLACK
6
CONTINUOUS
10
167.75
20
-75.5
11
173.75
21
-75.5
0
LINE
8
BLACK
6
CONTINUOUS
10
173.75
20
-75.5
11
173.75
21
-77.5
0
LINE
8
BLACK
6
CONTINUOUS
10
173.75
20
-111.5
11
167.75
21
-111.5
0
LINE
8
BLACK
6
CONTINUOUS
10
167.75
20
-111.5
11
167.75
21
-109.5
0
LINE
8
BLACK
6
CONTINUOUS
10
167.75
20
-109.5
11
173.75
21
-109.5
0
LINE
8
BLACK
6
CONTINUOUS
10
173.75
20
-109.5
11
173.75
21
-111.5
0
LINE
8
BLACK
6
CONTINUOUS
10
160.275
20
-78.025
11
174.225
21
-78.025
0
LINE
8
BLACK
6
CONTINUOUS
10
174.225
20
-78.025
11
174.225
21
-91.975
0
LINE
8
BLACK
6
CONTINUOUS
10
174.225
20
-91.975
11
160.275
21
-91.975
0
LINE
8
BLACK
6
CONTINUOUS
10
160.275
20
-91.975
11
160.275
21
-78.025
0
LINE
8
BLACK
6
CONTINUOUS
10
160.275
20
-95.025
11
174.225
21
-95.025
0
LINE
8
BLACK
6
CONTINUOUS
10
174.225
20
-95.025
11
174.225
21
-108.975
0
LINE
8
BLACK
6
CONTINUOUS
10
174.225
20
-108.975
11
160.275
21
-108.975
0
LINE
8
BLACK
6
CONTINUOUS
10
160.275
20
-108.975
11
160.275
21
-95.025
0
LINE
8
BLACK
6
CONTINUOUS
10
88.275
20
-97.025
11
102.225
21
-97.025
0
LINE
8
BLACK
6
CONTINUOUS
10
102.225
20
-97.025
11
102.225
21
-110.975
0
LINE
8
BLACK
6
CONTINUOUS
10
102.225
20
-110.975
11
88.275
21
-110.975
0
LINE
8
BLACK
6
CONTINUOUS
10
88.275
20
-110.975
11
88.275
21
-97.025
0
LINE
8
BLACK
6
CONTINUOUS
10
131.775
20
-114.525
11
145.725
21
-114.525
0
LINE
8
BLACK
6
CONTINUOUS
10
145.725
20
-114.525
11
145.725
21
-128.475
0
LINE
8
BLACK
6
CONTINUOUS
10
145.725
20
-128.475
11
131.775
21
-128.475
0
LINE
8
BLACK
6
CONTINUOUS
10
131.775
20
-128.475
11
131.775
21
-114.525
0
LINE
8
BLACK
6
CONTINUOUS
10
106.275
20
-76.025
11
120.225
21
-76.025
0
LINE
8
BLACK
6
CONTINUOUS
10
120.225
20
-76.025
11
120.225
21
-89.975
0
LINE
8
BLACK
6
CONTINUOUS
10
120.225
20
-89.975
11
106.275
21
-89.975
0
LINE
8
BLACK
6
CONTINUOUS
10
106.275
20
-89.975
11
106.275
21
-76.025
0
LINE
8
BLACK
6
CONTINUOUS
10
142.275
20
-76.025
11
156.225
21
-76.025
0
LINE
8
BLACK
6
CONTINUOUS
10
156.225
20
-76.025
11
156.225
21
-89.975
0
LINE
8
BLACK
6
CONTINUOUS
10
156.225
20
-89.975
11
142.275
21
-89.975
0
LINE
8
BLACK
6
CONTINUOUS
10
142.275
20
-89.975
11
142.275
21
-76.025
0
LINE
8
BLACK
6
CONTINUOUS
10
88.275
20
-80.025
11
102.225
21
-80.025
0
LINE
8
BLACK
6
CONTINUOUS
10
102.225
20
-80.025
11
102.225
21
-93.975
0
LINE
8
BLACK
6
CONTINUOUS
10
102.225
20
-93.975
11
88.275
21
-93.975
0
LINE
8
BLACK
6
CONTINUOUS
10
88.275
20
-93.975
11
88.275
21
-80.025
0
LINE
8
BLACK
6
CONTINUOUS
10
124.275
20
-89.025
11
138.225
21
-89.025
0
LINE
8
BLACK
6
CONTINUOUS
10
138.225
20
-89.025
11
138.225
21
-102.975
0
LINE
8
BLACK
6
CONTINUOUS
10
138.225
20
-102.975
11
124.275
21
-102.975
0
LINE
8
BLACK
6
CONTINUOUS
10
124.275
20
-102.975
11
124.275
21
-89.025
0
LINE
8
BLACK
6
CONTINUOUS
10
142.275
20
-93.025
11
156.225
21
-93.025
0
LINE
8
BLACK
6
CONTINUOUS
10
156.225
20
-93.025
11
156.225
21
-106.975
0
LINE
8
BLACK
6
CONTINUOUS
10
156.225
20
-106.975
11
142.275
21
-106.975
0
LINE
8
BLACK
6
CONTINUOUS
10
142.275
20
-106.975
11
142.275
21
-93.025
0
LINE
8
BLACK
6
CONTINUOUS
10
175.697
20
-122.472
11
187.778
21
-129.447
0
LINE
8
BLACK
6
CONTINUOUS
10
187.778
20
-129.447
11
180.803
21
-141.528
0
LINE
8
BLACK
6
CONTINUOUS
10
180.803
20
-141.528
11
168.722
21
-134.553
0
LINE
8
BLACK
6
CONTINUOUS
10
168.722
20
-134.553
11
175.697
21
-122.472
0
LINE
8
BLACK
6
CONTINUOUS
10
124.275
20
-72.025
11
138.225
21
-72.025
0
LINE
8
BLACK
6
CONTINUOUS
10
138.225
20
-72.025
11
138.225
21
-85.975
0
LINE
8
BLACK
6
CONTINUOUS
10
138.225
20
-85.975
11
124.275
21
-85.975
0
LINE
8
BLACK
6
CONTINUOUS
10
124.275
20
-85.975
11
124.275
21
-72.025
0
LINE
8
BLACK
6
CONTINUOUS
10
160.275
20
-61.025
11
174.225
21
-61.025
0
LINE
8
BLACK
6
CONTINUOUS
10
174.225
20
-61.025
11
174.225
21
-74.975
0
LINE
8
BLACK
6
CONTINUOUS
10
174.225
20
-74.975
11
160.275
21
-74.975
0
LINE
8
BLACK
6
CONTINUOUS
10
160.275
20
-74.975
11
160.275
21
-61.025
0
LINE
8
BLACK
6
CONTINUOUS
10
142.275
20
-59.025
11
156.225
21
-59.025
0
LINE
8
BLACK
6
CONTINUOUS
10
156.225
20
-59.025
11
156.225
21
-72.975
0
LINE
8
BLACK
6
CONTINUOUS
10
156.225
20
-72.975
11
142.275
21
-72.975
0
LINE
8
BLACK
6
CONTINUOUS
10
142.275
20
-72.975
11
142.275
21
-59.025
0
LINE
8
BLACK
6
CONTINUOUS
10
106.275
20
-59.025
11
120.225
21
-59.025
0
LINE
8
BLACK
6
CONTINUOUS
10
120.225
20
-59.025
11
120.225
21
-72.975
0
LINE
8
BLACK
6
CONTINUOUS
10
120.225
20
-72.975
11
106.275
21
-72.975
0
LINE
8
BLACK
6
CONTINUOUS
10
106.275
20
-72.975
11
106.275
21
-59.025
0
LINE
8
BLACK
6
CONTINUOUS
10
106.275
20
-93.025
11
120.225
21
-93.025
0
LINE
8
BLACK
6
CONTINUOUS
10
120.225
20
-93.025
11
120.225
21
-106.975
0
LINE
8
BLACK
6
CONTINUOUS
10
120.225
20
-106.975
11
106.275
21
-106.975
0
LINE
8
BLACK
6
CONTINUOUS
10
106.275
20
-106.975
11
106.275
21
-93.025
0
LINE
8
BLACK
6
CONTINUOUS
10
70.275
20
-82.025
11
84.225
21
-82.025
0
LINE
8
BLACK
6
CONTINUOUS
10
84.225
20
-82.025
11
84.225
21
-95.975
0
LINE
8
BLACK
6
CONTINUOUS
10
84.225
20
-95.975
11
70.275
21
-95.975
0
LINE
8
BLACK
6
CONTINUOUS
10
70.275
20
-95.975
11
70.275
21
-82.025
0
LINE
8
BLACK
6
CONTINUOUS
10
124.275
20
-55.025
11
138.225
21
-55.025
0
LINE
8
BLACK
6
CONTINUOUS
10
138.225
20
-55.025
11
138.225
21
-68.975
0
LINE
8
BLACK
6
CONTINUOUS
10
138.225
20
-68.975
11
124.275
21
-68.975
0
LINE
8
BLACK
6
CONTINUOUS
10
124.275
20
-68.975
11
124.275
21
-55.025
0
LINE
8
BLACK
6
CONTINUOUS
10
154.318
20
-115.457
11
167.793
21
-119.068
0
LINE
8
BLACK
6
CONTINUOUS
10
167.793
20
-119.068
11
164.182
21
-132.543
0
LINE
8
BLACK
6
CONTINUOUS
10
164.182
20
-132.543
11
150.707
21
-128.932
0
LINE
8
BLACK
6
CONTINUOUS
10
150.707
20
-128.932
11
154.318
21
-115.457
0
LINE
8
BLACK
6
CONTINUOUS
10
135.75
20
-113.5
11
131.75
21
-113.5
0
LINE
8
BLACK
6
CONTINUOUS
10
131.75
20
-113.5
11
131.75
21
-111.5
0
LINE
8
BLACK
6
CONTINUOUS
10
131.75
20
-111.5
11
135.75
21
-111.5
0
LINE
8
BLACK
6
CONTINUOUS
10
135.75
20
-111.5
11
135.75
21
-113.5
0
LINE
8
BLACK
6
CONTINUOUS
10
85.5
20
-86.5
11
87.5
21
-86.5
0
LINE
8
BLACK
6
CONTINUOUS
10
87.5
20
-86.5
11
87.5
21
-82.5
0
LINE
8
BLACK
6
CONTINUOUS
10
87.5
20
-82.5
11
85.5
21
-82.5
0
LINE
8
BLACK
6
CONTINUOUS
10
85.5
20
-82.5
11
85.5
21
-86.5
0
LINE
8
BLACK
6
CONTINUOUS
10
195.25
20
-96.75
11
191.25
21
-96.75
0
LINE
8
BLACK
6
CONTINUOUS
10
191.25
20
-96.75
11
191.25
21
-94.75
0
LINE
8
BLACK
6
CONTINUOUS
10
191.25
20
-94.75
11
195.25
21
-94.75
0
LINE
8
BLACK
6
CONTINUOUS
10
195.25
20
-94.75
11
195.25
21
-96.75
  0
ENDSEC
  0
EOF
