  0
SECTION
  2
HEADER
  9
$ANGBASE
  50
0.0
  9
$ANGDIR
  70
1
  9
$MEASUREMENT
  70
1
  0
ENDSEC
  0
SECTION
  2
TABLES
  0
TABLE
  2
LTYPE
  70
4
  0
LTYPE
  5
40F
  2
CONTINUOUS
  70
0
  3
Solid line
  72
65
  73
0
  40
0.0
  0
LTYPE
  5
410
  2
DASHDOT
 70
0
  3
Dash Dot ____ _ ____ _
 72
65
 73
4
 40
2.0
 49
1.25
 49
-0.25
 49
0.25
 49
-0.25
  0
LTYPE
  5
411
  2
DASHED
 70
0
  3
Dashed __ __ __ __ __
 72
65
 73
2
 40
0.75
 49
0.5
 49
-0.25
  0
LTYPE
  5
43B
  2
DOTTED
 70
0
  3
Dotted .  .  .  .
 72
65
 73
2
 40
0.2
 49
0.0
 49
-0.2
  0
ENDTAB
  0
TABLE
  2
STYLE
  70
4
  0
STYLE
  2
KICAD
  70
0
  40
0
  41
1
  42
1
  50
0
  71
0
  3
isocp.shx
  0
STYLE
  2
KICADB
  70
0
  40
0
  41
1
  42
1
  50
0
  71
0
  3
isocp.shx
  0
STYLE
  2
KICADI
  70
0
  40
0
  41
1
  42
1
  50
15
  71
0
  3
isocp.shx
  0
STYLE
  2
KICADBI
  70
0
  40
0
  41
1
  42
1
  50
15
  71
0
  3
isocp.shx
  0
ENDTAB
  0
TABLE
  2
LAYER
  70
1
  0
LAYER
  2
BLACK
  70
0
  62
7
  6
CONTINUOUS
  0
ENDTAB
  0
ENDSEC
  0
SECTION
  2
ENTITIES
0
LINE
8
BLACK
6
CONTINUOUS
10
-5
20
-7.5
11
-5
21
-69.25
0
LINE
8
BLACK
6
CONTINUOUS
10
-134
20
-28.5
11
-134
21
-45.5
0
LINE
8
BLACK
6
CONTINUOUS
10
-53.5
20
-79.5
11
-36
21
-84.25
0
LINE
8
BLACK
6
CONTINUOUS
10
-96
20
-59.5
11
-96
21
-60.5
0
LINE
8
BLACK
6
CONTINUOUS
10
-114.5
20
-62
11
-98.5
21
-62
0
ARC
8
BLACK
10
-43.5
20
-5
40
1
50
-0
51
90
0
ARC
8
BLACK
10
-74
20
-59.5
40
1.5
50
-0
51
90
0
LINE
8
BLACK
6
CONTINUOUS
10
-36
20
-84.25
11
-21
21
-93
0
LINE
8
BLACK
6
CONTINUOUS
10
-72.5
20
-78
11
-72.5
21
-59.5
0
ARC
8
BLACK
10
-114.5
20
-60.5
40
1.5
50
-180
51
-90
0
ARC
8
BLACK
10
-94.5
20
-59.5
40
1.5
50
90
51
180
0
ARC
8
BLACK
10
-96.5
20
-5.5
40
1.5
50
90
51
180
0
LINE
8
BLACK
6
CONTINUOUS
10
-80
20
-1.5
11
-80
21
-2.5
0
ARC
8
BLACK
10
-41.5
20
-5
40
1
50
-180
51
-90
0
ARC
8
BLACK
10
-132.5
20
-28.5
40
1.5
50
90
51
180
0
ARC
8
BLACK
10
-20
20
-91.25
40
2.01556
50
-119.745
51
-29.7449
0
ARC
8
BLACK
10
-61.5
20
-1.5
40
1.5
50
-0
51
90
0
ARC
8
BLACK
10
-71
20
-78
40
1.5
50
-180
51
-90
0
ARC
8
BLACK
10
-116.5
20
-26
40
1
50
-90
51
-0
0
ARC
8
BLACK
10
-99.5
20
-23.5
40
1.5
50
-90
51
-0
0
ARC
8
BLACK
10
-78.5
20
-1.5
40
1.5
50
90
51
180
0
ARC
8
BLACK
10
-117.5
20
-48.5
40
1.5
50
-0
51
90
0
LINE
8
BLACK
6
CONTINUOUS
10
-116
20
-48.5
11
-116
21
-60.5
0
ARC
8
BLACK
10
-132.5
20
-45.5
40
1.5
50
-180
51
-90
0
LINE
8
BLACK
6
CONTINUOUS
10
-60
20
-1.5
11
-60
21
-2.5
0
LINE
8
BLACK
6
CONTINUOUS
10
-99.5
20
-25
11
-114.5
21
-25
0
LINE
8
BLACK
6
CONTINUOUS
10
-132.5
20
-47
11
-117.5
21
-47
0
ARC
8
BLACK
10
-97.5
20
-60.5
40
1.5
50
-90
51
-0
0
LINE
8
BLACK
6
CONTINUOUS
10
-94.5
20
-58
11
-74
21
-58
0
LINE
8
BLACK
6
CONTINUOUS
10
-81.5
20
-4
11
-96.5
21
-4
0
LINE
8
BLACK
6
CONTINUOUS
10
-132.5
20
-27
11
-116.5
21
-27
0
LINE
8
BLACK
6
CONTINUOUS
10
-58.5
20
-4
11
-43.5
21
-4
0
LINE
8
BLACK
6
CONTINUOUS
10
-78.5
20
0
11
-61.5
21
0
0
ARC
8
BLACK
10
-114.5
20
-26
40
1
50
90
51
180
0
LINE
8
BLACK
6
CONTINUOUS
10
-98.5
20
-62
11
-97.5
21
-62
0
LINE
8
BLACK
6
CONTINUOUS
10
-18.25
20
-92.25
11
-5
21
-69.25
0
ARC
8
BLACK
10
-6.5
20
-7.5
40
1.5
50
-0
51
90
0
LINE
8
BLACK
6
CONTINUOUS
10
-41.5
20
-6
11
-6.5
21
-6
0
ARC
8
BLACK
10
-81.5
20
-2.5
40
1.5
50
-90
51
-0
0
LINE
8
BLACK
6
CONTINUOUS
10
-98
20
-5.5
11
-98
21
-23.5
0
LINE
8
BLACK
6
CONTINUOUS
10
-71
20
-79.5
11
-53.5
21
-79.5
0
ARC
8
BLACK
10
-58.5
20
-2.5
40
1.5
50
-180
51
-90
0
LINE
8
BLACK
6
CONTINUOUS
10
-58.9
20
-7.1
11
-45.1
21
-7.1
0
LINE
8
BLACK
6
CONTINUOUS
10
-45.1
20
-7.1
11
-45.1
21
-20.9
0
LINE
8
BLACK
6
CONTINUOUS
10
-45.1
20
-20.9
11
-58.9
21
-20.9
0
LINE
8
BLACK
6
CONTINUOUS
10
-58.9
20
-20.9
11
-58.9
21
-7.1
0
LINE
8
BLACK
6
CONTINUOUS
10
-59.4
20
-7.1
11
-44.6
21
-7.1
0
LINE
8
BLACK
6
CONTINUOUS
10
-44.6
20
-7.1
11
-44.6
21
-20.9
0
LINE
8
BLACK
6
CONTINUOUS
10
-44.6
20
-20.9
11
-59.4
21
-20.9
0
LINE
8
BLACK
6
CONTINUOUS
10
-59.4
20
-20.9
11
-59.4
21
-7.1
0
LINE
8
BLACK
6
CONTINUOUS
10
-99.5
20
-44.5
11
-105.5
21
-44.5
0
LINE
8
BLACK
6
CONTINUOUS
10
-105.5
20
-44.5
11
-105.5
21
-42.5
0
LINE
8
BLACK
6
CONTINUOUS
10
-105.5
20
-42.5
11
-99.5
21
-42.5
0
LINE
8
BLACK
6
CONTINUOUS
10
-99.5
20
-42.5
11
-99.5
21
-44.5
0
LINE
8
BLACK
6
CONTINUOUS
10
-27.5
20
-59.5
11
-33.5
21
-59.5
0
LINE
8
BLACK
6
CONTINUOUS
10
-33.5
20
-59.5
11
-33.5
21
-57.5
0
LINE
8
BLACK
6
CONTINUOUS
10
-33.5
20
-57.5
11
-27.5
21
-57.5
0
LINE
8
BLACK
6
CONTINUOUS
10
-27.5
20
-57.5
11
-27.5
21
-59.5
0
LINE
8
BLACK
6
CONTINUOUS
10
-45.5
20
-57.5
11
-51.5
21
-57.5
0
LINE
8
BLACK
6
CONTINUOUS
10
-51.5
20
-57.5
11
-51.5
21
-55.5
0
LINE
8
BLACK
6
CONTINUOUS
10
-51.5
20
-55.5
11
-45.5
21
-55.5
0
LINE
8
BLACK
6
CONTINUOUS
10
-45.5
20
-55.5
11
-45.5
21
-57.5
0
LINE
8
BLACK
6
CONTINUOUS
10
-6
20
-44.75
11
-10
21
-44.75
0
LINE
8
BLACK
6
CONTINUOUS
10
-10
20
-44.75
11
-10
21
-42.75
0
LINE
8
BLACK
6
CONTINUOUS
10
-10
20
-42.75
11
-6
21
-42.75
0
LINE
8
BLACK
6
CONTINUOUS
10
-6
20
-42.75
11
-6
21
-44.75
0
LINE
8
BLACK
6
CONTINUOUS
10
-3.75
20
-49
11
-5.25
21
-49
0
LINE
8
BLACK
6
CONTINUOUS
10
-9.75
20
-46.5
11
-9.75
21
-55.5
0
LINE
8
BLACK
6
CONTINUOUS
10
-9.75
20
-55.5
11
-5.25
21
-55.5
0
LINE
8
BLACK
6
CONTINUOUS
10
-5.25
20
-46.5
11
-9.75
21
-46.5
0
LINE
8
BLACK
6
CONTINUOUS
10
-5.25
20
-49
11
-5.25
21
-46.5
0
LINE
8
BLACK
6
CONTINUOUS
10
-5.25
20
-53
11
-3.75
21
-53
0
LINE
8
BLACK
6
CONTINUOUS
10
-5.25
20
-55.5
11
-5.25
21
-53
0
LINE
8
BLACK
6
CONTINUOUS
10
-3.75
20
-53
11
-3.75
21
-49
0
LINE
8
BLACK
6
CONTINUOUS
10
-59.4
20
-24.1
11
-44.6
21
-24.1
0
LINE
8
BLACK
6
CONTINUOUS
10
-44.6
20
-24.1
11
-44.6
21
-37.9
0
LINE
8
BLACK
6
CONTINUOUS
10
-44.6
20
-37.9
11
-59.4
21
-37.9
0
LINE
8
BLACK
6
CONTINUOUS
10
-59.4
20
-37.9
11
-59.4
21
-24.1
0
LINE
8
BLACK
6
CONTINUOUS
10
-58.9
20
-24.1
11
-45.1
21
-24.1
0
LINE
8
BLACK
6
CONTINUOUS
10
-45.1
20
-24.1
11
-45.1
21
-37.9
0
LINE
8
BLACK
6
CONTINUOUS
10
-45.1
20
-37.9
11
-58.9
21
-37.9
0
LINE
8
BLACK
6
CONTINUOUS
10
-58.9
20
-37.9
11
-58.9
21
-24.1
0
LINE
8
BLACK
6
CONTINUOUS
10
-40.9
20
-43.1
11
-27.1
21
-43.1
0
LINE
8
BLACK
6
CONTINUOUS
10
-27.1
20
-43.1
11
-27.1
21
-56.9
0
LINE
8
BLACK
6
CONTINUOUS
10
-27.1
20
-56.9
11
-40.9
21
-56.9
0
LINE
8
BLACK
6
CONTINUOUS
10
-40.9
20
-56.9
11
-40.9
21
-43.1
0
LINE
8
BLACK
6
CONTINUOUS
10
-41.4
20
-43.1
11
-26.6
21
-43.1
0
LINE
8
BLACK
6
CONTINUOUS
10
-26.6
20
-43.1
11
-26.6
21
-56.9
0
LINE
8
BLACK
6
CONTINUOUS
10
-26.6
20
-56.9
11
-41.4
21
-56.9
0
LINE
8
BLACK
6
CONTINUOUS
10
-41.4
20
-56.9
11
-41.4
21
-43.1
0
LINE
8
BLACK
6
CONTINUOUS
10
-88.5
20
-23.5
11
-94.5
21
-23.5
0
LINE
8
BLACK
6
CONTINUOUS
10
-94.5
20
-23.5
11
-94.5
21
-21.5
0
LINE
8
BLACK
6
CONTINUOUS
10
-94.5
20
-21.5
11
-88.5
21
-21.5
0
LINE
8
BLACK
6
CONTINUOUS
10
-88.5
20
-21.5
11
-88.5
21
-23.5
0
LINE
8
BLACK
6
CONTINUOUS
10
-115.75
20
-34.5
11
-113.75
21
-34.5
0
LINE
8
BLACK
6
CONTINUOUS
10
-113.75
20
-34.5
11
-113.75
21
-30.5
0
LINE
8
BLACK
6
CONTINUOUS
10
-113.75
20
-30.5
11
-115.75
21
-30.5
0
LINE
8
BLACK
6
CONTINUOUS
10
-115.75
20
-30.5
11
-115.75
21
-34.5
0
LINE
8
BLACK
6
CONTINUOUS
10
-34.5
20
-25.5
11
-40.5
21
-25.5
0
LINE
8
BLACK
6
CONTINUOUS
10
-40.5
20
-25.5
11
-40.5
21
-23.5
0
LINE
8
BLACK
6
CONTINUOUS
10
-40.5
20
-23.5
11
-34.5
21
-23.5
0
LINE
8
BLACK
6
CONTINUOUS
10
-34.5
20
-23.5
11
-34.5
21
-25.5
0
LINE
8
BLACK
6
CONTINUOUS
10
-59.4
20
-41.1
11
-44.6
21
-41.1
0
LINE
8
BLACK
6
CONTINUOUS
10
-44.6
20
-41.1
11
-44.6
21
-54.9
0
LINE
8
BLACK
6
CONTINUOUS
10
-44.6
20
-54.9
11
-59.4
21
-54.9
0
LINE
8
BLACK
6
CONTINUOUS
10
-59.4
20
-54.9
11
-59.4
21
-41.1
0
LINE
8
BLACK
6
CONTINUOUS
10
-58.9
20
-41.1
11
-45.1
21
-41.1
0
LINE
8
BLACK
6
CONTINUOUS
10
-45.1
20
-41.1
11
-45.1
21
-54.9
0
LINE
8
BLACK
6
CONTINUOUS
10
-45.1
20
-54.9
11
-58.9
21
-54.9
0
LINE
8
BLACK
6
CONTINUOUS
10
-58.9
20
-54.9
11
-58.9
21
-41.1
0
LINE
8
BLACK
6
CONTINUOUS
10
-13.915
20
-46.5
11
-4.915
21
-46.5
0
LINE
8
BLACK
6
CONTINUOUS
10
-4.915
20
-46.5
11
-4.915
21
-36.5
0
LINE
8
BLACK
6
CONTINUOUS
10
-4.915
20
-36.5
11
-13.915
21
-36.5
0
LINE
8
BLACK
6
CONTINUOUS
10
-13.915
20
-36.5
11
-13.915
21
-46.5
0
LINE
8
BLACK
6
CONTINUOUS
10
-22.75
20
-56.1
11
-7.25
21
-56.1
0
LINE
8
BLACK
6
CONTINUOUS
10
-7.25
20
-56.1
11
-7.25
21
-68.9
0
LINE
8
BLACK
6
CONTINUOUS
10
-7.25
20
-68.9
11
-22.75
21
-68.9
0
LINE
8
BLACK
6
CONTINUOUS
10
-22.75
20
-68.9
11
-22.75
21
-56.1
0
LINE
8
BLACK
6
CONTINUOUS
10
-113.4
20
-45.1
11
-98.6
21
-45.1
0
LINE
8
BLACK
6
CONTINUOUS
10
-98.6
20
-45.1
11
-98.6
21
-58.9
0
LINE
8
BLACK
6
CONTINUOUS
10
-98.6
20
-58.9
11
-113.4
21
-58.9
0
LINE
8
BLACK
6
CONTINUOUS
10
-113.4
20
-58.9
11
-113.4
21
-45.1
0
LINE
8
BLACK
6
CONTINUOUS
10
-112.9
20
-45.1
11
-99.1
21
-45.1
0
LINE
8
BLACK
6
CONTINUOUS
10
-99.1
20
-45.1
11
-99.1
21
-58.9
0
LINE
8
BLACK
6
CONTINUOUS
10
-99.1
20
-58.9
11
-112.9
21
-58.9
0
LINE
8
BLACK
6
CONTINUOUS
10
-112.9
20
-58.9
11
-112.9
21
-45.1
0
LINE
8
BLACK
6
CONTINUOUS
10
-70.5
20
-19.5
11
-76.5
21
-19.5
0
LINE
8
BLACK
6
CONTINUOUS
10
-76.5
20
-19.5
11
-76.5
21
-17.5
0
LINE
8
BLACK
6
CONTINUOUS
10
-76.5
20
-17.5
11
-70.5
21
-17.5
0
LINE
8
BLACK
6
CONTINUOUS
10
-70.5
20
-17.5
11
-70.5
21
-19.5
0
LINE
8
BLACK
6
CONTINUOUS
10
-113.4
20
-28.1
11
-98.6
21
-28.1
0
LINE
8
BLACK
6
CONTINUOUS
10
-98.6
20
-28.1
11
-98.6
21
-41.9
0
LINE
8
BLACK
6
CONTINUOUS
10
-98.6
20
-41.9
11
-113.4
21
-41.9
0
LINE
8
BLACK
6
CONTINUOUS
10
-113.4
20
-41.9
11
-113.4
21
-28.1
0
LINE
8
BLACK
6
CONTINUOUS
10
-112.9
20
-28.1
11
-99.1
21
-28.1
0
LINE
8
BLACK
6
CONTINUOUS
10
-99.1
20
-28.1
11
-99.1
21
-41.9
0
LINE
8
BLACK
6
CONTINUOUS
10
-99.1
20
-41.9
11
-112.9
21
-41.9
0
LINE
8
BLACK
6
CONTINUOUS
10
-112.9
20
-41.9
11
-112.9
21
-28.1
0
LINE
8
BLACK
6
CONTINUOUS
10
-95.4
20
-7.1
11
-80.6
21
-7.1
0
LINE
8
BLACK
6
CONTINUOUS
10
-80.6
20
-7.1
11
-80.6
21
-20.9
0
LINE
8
BLACK
6
CONTINUOUS
10
-80.6
20
-20.9
11
-95.4
21
-20.9
0
LINE
8
BLACK
6
CONTINUOUS
10
-95.4
20
-20.9
11
-95.4
21
-7.1
0
LINE
8
BLACK
6
CONTINUOUS
10
-94.9
20
-7.1
11
-81.1
21
-7.1
0
LINE
8
BLACK
6
CONTINUOUS
10
-81.1
20
-7.1
11
-81.1
21
-20.9
0
LINE
8
BLACK
6
CONTINUOUS
10
-81.1
20
-20.9
11
-94.9
21
-20.9
0
LINE
8
BLACK
6
CONTINUOUS
10
-94.9
20
-20.9
11
-94.9
21
-7.1
0
LINE
8
BLACK
6
CONTINUOUS
10
-69.4
20
-62.6
11
-55.6
21
-62.6
0
LINE
8
BLACK
6
CONTINUOUS
10
-55.6
20
-62.6
11
-55.6
21
-76.4
0
LINE
8
BLACK
6
CONTINUOUS
10
-55.6
20
-76.4
11
-69.4
21
-76.4
0
LINE
8
BLACK
6
CONTINUOUS
10
-69.4
20
-76.4
11
-69.4
21
-62.6
0
LINE
8
BLACK
6
CONTINUOUS
10
-69.9
20
-62.6
11
-55.1
21
-62.6
0
LINE
8
BLACK
6
CONTINUOUS
10
-55.1
20
-62.6
11
-55.1
21
-76.4
0
LINE
8
BLACK
6
CONTINUOUS
10
-55.1
20
-76.4
11
-69.9
21
-76.4
0
LINE
8
BLACK
6
CONTINUOUS
10
-69.9
20
-76.4
11
-69.9
21
-62.6
0
LINE
8
BLACK
6
CONTINUOUS
10
-27.5
20
-25.5
11
-33.5
21
-25.5
0
LINE
8
BLACK
6
CONTINUOUS
10
-33.5
20
-25.5
11
-33.5
21
-23.5
0
LINE
8
BLACK
6
CONTINUOUS
10
-33.5
20
-23.5
11
-27.5
21
-23.5
0
LINE
8
BLACK
6
CONTINUOUS
10
-27.5
20
-23.5
11
-27.5
21
-25.5
0
LINE
8
BLACK
6
CONTINUOUS
10
-131.4
20
-30.1
11
-116.6
21
-30.1
0
LINE
8
BLACK
6
CONTINUOUS
10
-116.6
20
-30.1
11
-116.6
21
-43.9
0
LINE
8
BLACK
6
CONTINUOUS
10
-116.6
20
-43.9
11
-131.4
21
-43.9
0
LINE
8
BLACK
6
CONTINUOUS
10
-131.4
20
-43.9
11
-131.4
21
-30.1
0
LINE
8
BLACK
6
CONTINUOUS
10
-130.9
20
-30.1
11
-117.1
21
-30.1
0
LINE
8
BLACK
6
CONTINUOUS
10
-117.1
20
-30.1
11
-117.1
21
-43.9
0
LINE
8
BLACK
6
CONTINUOUS
10
-117.1
20
-43.9
11
-130.9
21
-43.9
0
LINE
8
BLACK
6
CONTINUOUS
10
-130.9
20
-43.9
11
-130.9
21
-30.1
0
LINE
8
BLACK
6
CONTINUOUS
10
-81.5
20
-23.5
11
-87.5
21
-23.5
0
LINE
8
BLACK
6
CONTINUOUS
10
-87.5
20
-23.5
11
-87.5
21
-21.5
0
LINE
8
BLACK
6
CONTINUOUS
10
-87.5
20
-21.5
11
-81.5
21
-21.5
0
LINE
8
BLACK
6
CONTINUOUS
10
-81.5
20
-21.5
11
-81.5
21
-23.5
0
LINE
8
BLACK
6
CONTINUOUS
10
-58.5
20
-62
11
-64.5
21
-62
0
LINE
8
BLACK
6
CONTINUOUS
10
-64.5
20
-62
11
-64.5
21
-60
0
LINE
8
BLACK
6
CONTINUOUS
10
-64.5
20
-60
11
-58.5
21
-60
0
LINE
8
BLACK
6
CONTINUOUS
10
-58.5
20
-60
11
-58.5
21
-62
0
LINE
8
BLACK
6
CONTINUOUS
10
-17.25
20
-55.5
11
-23.25
21
-55.5
0
LINE
8
BLACK
6
CONTINUOUS
10
-23.25
20
-55.5
11
-23.25
21
-53.5
0
LINE
8
BLACK
6
CONTINUOUS
10
-23.25
20
-53.5
11
-17.25
21
-53.5
0
LINE
8
BLACK
6
CONTINUOUS
10
-17.25
20
-53.5
11
-17.25
21
-55.5
0
LINE
8
BLACK
6
CONTINUOUS
10
-63.5
20
-53.5
11
-69.5
21
-53.5
0
LINE
8
BLACK
6
CONTINUOUS
10
-69.5
20
-53.5
11
-69.5
21
-51.5
0
LINE
8
BLACK
6
CONTINUOUS
10
-69.5
20
-51.5
11
-63.5
21
-51.5
0
LINE
8
BLACK
6
CONTINUOUS
10
-63.5
20
-51.5
11
-63.5
21
-53.5
0
LINE
8
BLACK
6
CONTINUOUS
10
-5.1
20
-28.25
11
-5.1
21
-28.75
0
LINE
8
BLACK
6
CONTINUOUS
10
-3.1
20
-35.75
11
-5.1
21
-35.75
0
LINE
8
BLACK
6
CONTINUOUS
10
-18.1
20
-28.25
11
-5.1
21
-28.25
0
LINE
8
BLACK
6
CONTINUOUS
10
-3.1
20
-28.75
11
-3.1
21
-35.75
0
LINE
8
BLACK
6
CONTINUOUS
10
-5.1
20
-28.75
11
-3.1
21
-28.75
0
LINE
8
BLACK
6
CONTINUOUS
10
-18.1
20
-36.25
11
-18.1
21
-28.25
0
LINE
8
BLACK
6
CONTINUOUS
10
-5.1
20
-35.75
11
-5.1
21
-36.25
0
LINE
8
BLACK
6
CONTINUOUS
10
-5.1
20
-36.25
11
-18.1
21
-36.25
0
LINE
8
BLACK
6
CONTINUOUS
10
-77.4
20
-3.1
11
-62.6
21
-3.1
0
LINE
8
BLACK
6
CONTINUOUS
10
-62.6
20
-3.1
11
-62.6
21
-16.9
0
LINE
8
BLACK
6
CONTINUOUS
10
-62.6
20
-16.9
11
-77.4
21
-16.9
0
LINE
8
BLACK
6
CONTINUOUS
10
-77.4
20
-16.9
11
-77.4
21
-3.1
0
LINE
8
BLACK
6
CONTINUOUS
10
-76.9
20
-3.1
11
-63.1
21
-3.1
0
LINE
8
BLACK
6
CONTINUOUS
10
-63.1
20
-3.1
11
-63.1
21
-16.9
0
LINE
8
BLACK
6
CONTINUOUS
10
-63.1
20
-16.9
11
-76.9
21
-16.9
0
LINE
8
BLACK
6
CONTINUOUS
10
-76.9
20
-16.9
11
-76.9
21
-3.1
0
LINE
8
BLACK
6
CONTINUOUS
10
-95.4
20
-24.1
11
-80.6
21
-24.1
0
LINE
8
BLACK
6
CONTINUOUS
10
-80.6
20
-24.1
11
-80.6
21
-37.9
0
LINE
8
BLACK
6
CONTINUOUS
10
-80.6
20
-37.9
11
-95.4
21
-37.9
0
LINE
8
BLACK
6
CONTINUOUS
10
-95.4
20
-37.9
11
-95.4
21
-24.1
0
LINE
8
BLACK
6
CONTINUOUS
10
-94.9
20
-24.1
11
-81.1
21
-24.1
0
LINE
8
BLACK
6
CONTINUOUS
10
-81.1
20
-24.1
11
-81.1
21
-37.9
0
LINE
8
BLACK
6
CONTINUOUS
10
-81.1
20
-37.9
11
-94.9
21
-37.9
0
LINE
8
BLACK
6
CONTINUOUS
10
-94.9
20
-37.9
11
-94.9
21
-24.1
0
LINE
8
BLACK
6
CONTINUOUS
10
-63.5
20
-19.5
11
-69.5
21
-19.5
0
LINE
8
BLACK
6
CONTINUOUS
10
-69.5
20
-19.5
11
-69.5
21
-17.5
0
LINE
8
BLACK
6
CONTINUOUS
10
-69.5
20
-17.5
11
-63.5
21
-17.5
0
LINE
8
BLACK
6
CONTINUOUS
10
-63.5
20
-17.5
11
-63.5
21
-19.5
0
LINE
8
BLACK
6
CONTINUOUS
10
-47.362
20
-63.4199
11
-33.0663
21
-67.2504
0
LINE
8
BLACK
6
CONTINUOUS
10
-33.0663
20
-67.2504
11
-36.638
21
-80.5801
0
LINE
8
BLACK
6
CONTINUOUS
10
-36.638
20
-80.5801
11
-50.9337
21
-76.7496
0
LINE
8
BLACK
6
CONTINUOUS
10
-50.9337
20
-76.7496
11
-47.362
21
-63.4199
0
LINE
8
BLACK
6
CONTINUOUS
10
-46.879
20
-63.5493
11
-33.5493
21
-67.121
0
LINE
8
BLACK
6
CONTINUOUS
10
-33.5493
20
-67.121
11
-37.121
21
-80.4507
0
LINE
8
BLACK
6
CONTINUOUS
10
-37.121
20
-80.4507
11
-50.4507
21
-76.879
0
LINE
8
BLACK
6
CONTINUOUS
10
-50.4507
20
-76.879
11
-46.879
21
-63.5493
0
LINE
8
BLACK
6
CONTINUOUS
10
-34.5
20
-59.5
11
-40.5
21
-59.5
0
LINE
8
BLACK
6
CONTINUOUS
10
-40.5
20
-59.5
11
-40.5
21
-57.5
0
LINE
8
BLACK
6
CONTINUOUS
10
-40.5
20
-57.5
11
-34.5
21
-57.5
0
LINE
8
BLACK
6
CONTINUOUS
10
-34.5
20
-57.5
11
-34.5
21
-59.5
0
LINE
8
BLACK
6
CONTINUOUS
10
-40.9
20
-9.1
11
-27.1
21
-9.1
0
LINE
8
BLACK
6
CONTINUOUS
10
-27.1
20
-9.1
11
-27.1
21
-22.9
0
LINE
8
BLACK
6
CONTINUOUS
10
-27.1
20
-22.9
11
-40.9
21
-22.9
0
LINE
8
BLACK
6
CONTINUOUS
10
-40.9
20
-22.9
11
-40.9
21
-9.1
0
LINE
8
BLACK
6
CONTINUOUS
10
-41.4
20
-9.1
11
-26.6
21
-9.1
0
LINE
8
BLACK
6
CONTINUOUS
10
-26.6
20
-9.1
11
-26.6
21
-22.9
0
LINE
8
BLACK
6
CONTINUOUS
10
-26.6
20
-22.9
11
-41.4
21
-22.9
0
LINE
8
BLACK
6
CONTINUOUS
10
-41.4
20
-22.9
11
-41.4
21
-9.1
0
LINE
8
BLACK
6
CONTINUOUS
10
-52.5
20
-40.5
11
-58.5
21
-40.5
0
LINE
8
BLACK
6
CONTINUOUS
10
-58.5
20
-40.5
11
-58.5
21
-38.5
0
LINE
8
BLACK
6
CONTINUOUS
10
-58.5
20
-38.5
11
-52.5
21
-38.5
0
LINE
8
BLACK
6
CONTINUOUS
10
-52.5
20
-38.5
11
-52.5
21
-40.5
0
LINE
8
BLACK
6
CONTINUOUS
10
-70.5
20
-53.5
11
-76.5
21
-53.5
0
LINE
8
BLACK
6
CONTINUOUS
10
-76.5
20
-53.5
11
-76.5
21
-51.5
0
LINE
8
BLACK
6
CONTINUOUS
10
-76.5
20
-51.5
11
-70.5
21
-51.5
0
LINE
8
BLACK
6
CONTINUOUS
10
-70.5
20
-51.5
11
-70.5
21
-53.5
0
LINE
8
BLACK
6
CONTINUOUS
10
-52.5
20
-57.5
11
-58.5
21
-57.5
0
LINE
8
BLACK
6
CONTINUOUS
10
-58.5
20
-57.5
11
-58.5
21
-55.5
0
LINE
8
BLACK
6
CONTINUOUS
10
-58.5
20
-55.5
11
-52.5
21
-55.5
0
LINE
8
BLACK
6
CONTINUOUS
10
-52.5
20
-55.5
11
-52.5
21
-57.5
0
LINE
8
BLACK
6
CONTINUOUS
10
-94.9
20
-41.1
11
-81.1
21
-41.1
0
LINE
8
BLACK
6
CONTINUOUS
10
-81.1
20
-41.1
11
-81.1
21
-54.9
0
LINE
8
BLACK
6
CONTINUOUS
10
-81.1
20
-54.9
11
-94.9
21
-54.9
0
LINE
8
BLACK
6
CONTINUOUS
10
-94.9
20
-54.9
11
-94.9
21
-41.1
0
LINE
8
BLACK
6
CONTINUOUS
10
-95.4
20
-41.1
11
-80.6
21
-41.1
0
LINE
8
BLACK
6
CONTINUOUS
10
-80.6
20
-41.1
11
-80.6
21
-54.9
0
LINE
8
BLACK
6
CONTINUOUS
10
-80.6
20
-54.9
11
-95.4
21
-54.9
0
LINE
8
BLACK
6
CONTINUOUS
10
-95.4
20
-54.9
11
-95.4
21
-41.1
0
LINE
8
BLACK
6
CONTINUOUS
10
-77.4
20
-37.1
11
-62.6
21
-37.1
0
LINE
8
BLACK
6
CONTINUOUS
10
-62.6
20
-37.1
11
-62.6
21
-50.9
0
LINE
8
BLACK
6
CONTINUOUS
10
-62.6
20
-50.9
11
-77.4
21
-50.9
0
LINE
8
BLACK
6
CONTINUOUS
10
-77.4
20
-50.9
11
-77.4
21
-37.1
0
LINE
8
BLACK
6
CONTINUOUS
10
-76.9
20
-37.1
11
-63.1
21
-37.1
0
LINE
8
BLACK
6
CONTINUOUS
10
-63.1
20
-37.1
11
-63.1
21
-50.9
0
LINE
8
BLACK
6
CONTINUOUS
10
-63.1
20
-50.9
11
-76.9
21
-50.9
0
LINE
8
BLACK
6
CONTINUOUS
10
-76.9
20
-50.9
11
-76.9
21
-37.1
0
LINE
8
BLACK
6
CONTINUOUS
10
-25.9586
20
-70.3244
11
-13.1414
21
-77.7244
0
LINE
8
BLACK
6
CONTINUOUS
10
-13.1414
20
-77.7244
11
-20.0414
21
-89.6756
0
LINE
8
BLACK
6
CONTINUOUS
10
-20.0414
20
-89.6756
11
-32.8586
21
-82.2756
0
LINE
8
BLACK
6
CONTINUOUS
10
-32.8586
20
-82.2756
11
-25.9586
21
-70.3244
0
LINE
8
BLACK
6
CONTINUOUS
10
-25.5256
20
-70.5744
11
-13.5744
21
-77.4744
0
LINE
8
BLACK
6
CONTINUOUS
10
-13.5744
20
-77.4744
11
-20.4744
21
-89.4256
0
LINE
8
BLACK
6
CONTINUOUS
10
-20.4744
20
-89.4256
11
-32.4256
21
-82.5256
0
LINE
8
BLACK
6
CONTINUOUS
10
-32.4256
20
-82.5256
11
-25.5256
21
-70.5744
0
LINE
8
BLACK
6
CONTINUOUS
10
-10.25
20
-55.5
11
-16.25
21
-55.5
0
LINE
8
BLACK
6
CONTINUOUS
10
-16.25
20
-55.5
11
-16.25
21
-53.5
0
LINE
8
BLACK
6
CONTINUOUS
10
-16.25
20
-53.5
11
-10.25
21
-53.5
0
LINE
8
BLACK
6
CONTINUOUS
10
-10.25
20
-53.5
11
-10.25
21
-55.5
0
LINE
8
BLACK
6
CONTINUOUS
10
-45.5
20
-40.5
11
-51.5
21
-40.5
0
LINE
8
BLACK
6
CONTINUOUS
10
-51.5
20
-40.5
11
-51.5
21
-38.5
0
LINE
8
BLACK
6
CONTINUOUS
10
-51.5
20
-38.5
11
-45.5
21
-38.5
0
LINE
8
BLACK
6
CONTINUOUS
10
-45.5
20
-38.5
11
-45.5
21
-40.5
0
LINE
8
BLACK
6
CONTINUOUS
10
-77.4
20
-20.1
11
-62.6
21
-20.1
0
LINE
8
BLACK
6
CONTINUOUS
10
-62.6
20
-20.1
11
-62.6
21
-33.9
0
LINE
8
BLACK
6
CONTINUOUS
10
-62.6
20
-33.9
11
-77.4
21
-33.9
0
LINE
8
BLACK
6
CONTINUOUS
10
-77.4
20
-33.9
11
-77.4
21
-20.1
0
LINE
8
BLACK
6
CONTINUOUS
10
-76.9
20
-20.1
11
-63.1
21
-20.1
0
LINE
8
BLACK
6
CONTINUOUS
10
-63.1
20
-20.1
11
-63.1
21
-33.9
0
LINE
8
BLACK
6
CONTINUOUS
10
-63.1
20
-33.9
11
-76.9
21
-33.9
0
LINE
8
BLACK
6
CONTINUOUS
10
-76.9
20
-33.9
11
-76.9
21
-20.1
0
LINE
8
BLACK
6
CONTINUOUS
10
-41.4
20
-26.1
11
-26.6
21
-26.1
0
LINE
8
BLACK
6
CONTINUOUS
10
-26.6
20
-26.1
11
-26.6
21
-39.9
0
LINE
8
BLACK
6
CONTINUOUS
10
-26.6
20
-39.9
11
-41.4
21
-39.9
0
LINE
8
BLACK
6
CONTINUOUS
10
-41.4
20
-39.9
11
-41.4
21
-26.1
0
LINE
8
BLACK
6
CONTINUOUS
10
-40.9
20
-26.1
11
-27.1
21
-26.1
0
LINE
8
BLACK
6
CONTINUOUS
10
-27.1
20
-26.1
11
-27.1
21
-39.9
0
LINE
8
BLACK
6
CONTINUOUS
10
-27.1
20
-39.9
11
-40.9
21
-39.9
0
LINE
8
BLACK
6
CONTINUOUS
10
-40.9
20
-39.9
11
-40.9
21
-26.1
0
LINE
8
BLACK
6
CONTINUOUS
10
-106.5
20
-44.5
11
-112.5
21
-44.5
0
LINE
8
BLACK
6
CONTINUOUS
10
-112.5
20
-44.5
11
-112.5
21
-42.5
0
LINE
8
BLACK
6
CONTINUOUS
10
-112.5
20
-42.5
11
-106.5
21
-42.5
0
LINE
8
BLACK
6
CONTINUOUS
10
-106.5
20
-42.5
11
-106.5
21
-44.5
0
LINE
8
BLACK
6
CONTINUOUS
10
-65.5
20
-61.5
11
-69.5
21
-61.5
0
LINE
8
BLACK
6
CONTINUOUS
10
-69.5
20
-61.5
11
-69.5
21
-59.5
0
LINE
8
BLACK
6
CONTINUOUS
10
-69.5
20
-59.5
11
-65.5
21
-59.5
0
LINE
8
BLACK
6
CONTINUOUS
10
-65.5
20
-59.5
11
-65.5
21
-61.5
0
LINE
8
BLACK
6
CONTINUOUS
10
-20
20
-6
11
-10
21
-6
0
LINE
8
BLACK
6
CONTINUOUS
10
-6
20
-6.5
11
-6
21
-27.5
0
LINE
8
BLACK
6
CONTINUOUS
10
-6
20
-27.5
11
-24
21
-27.5
0
LINE
8
BLACK
6
CONTINUOUS
10
-24
20
-27.5
11
-24
21
-6.5
0
LINE
8
BLACK
6
CONTINUOUS
10
-10
20
-6
11
-10
21
-6.5
0
LINE
8
BLACK
6
CONTINUOUS
10
-20
20
-6.5
11
-20
21
-6
0
LINE
8
BLACK
6
CONTINUOUS
10
-24
20
-6.5
11
-20
21
-6.5
0
LINE
8
BLACK
6
CONTINUOUS
10
-10
20
-6.5
11
-6
21
-6.5
0
LINE
8
BLACK
6
CONTINUOUS
10
-24.25
20
-27.75
11
-22.25
21
-27.75
0
LINE
8
BLACK
6
CONTINUOUS
10
-22.25
20
-27.75
11
-22.25
21
-30.75
0
LINE
8
BLACK
6
CONTINUOUS
10
-22.25
20
-30.75
11
-24.25
21
-30.75
0
LINE
8
BLACK
6
CONTINUOUS
10
-24.25
20
-30.75
11
-24.25
21
-27.75
0
LINE
8
BLACK
6
CONTINUOUS
10
-19.75
20
-30.75
11
-21.75
21
-30.75
0
LINE
8
BLACK
6
CONTINUOUS
10
-21.75
20
-30.75
11
-21.75
21
-27.75
0
LINE
8
BLACK
6
CONTINUOUS
10
-21.75
20
-27.75
11
-19.75
21
-27.75
0
LINE
8
BLACK
6
CONTINUOUS
10
-19.75
20
-27.75
11
-19.75
21
-30.75
  0
ENDSEC
  0
EOF
